<?xml version="1.0" encoding="utf-8"?>
<svg width="60px" height="43px" viewBox="0 0 60 43" version="1.1" xmlns:xlink="http://www.w3.org/1999/xlink" xmlns="http://www.w3.org/2000/svg">
  <g id="right-quote" transform="matrix(-0.9986295 -0.05233605 0.05233605 -0.9986295 56.921875 42.928223)">
    <path d="M13 0C5.8318 0 0 5.71399 0 12.7374C0 16.0959 1.32253 19.265 3.72385 21.6609C6.11986 24.0514 9.32024 25.4046 12.736 25.4715L12.8352 25.4739C14.0327 25.5093 15.0264 24.579 15.0576 23.407C15.0888 22.2349 14.1442 21.2601 12.948 21.2295L12.8281 21.2265C8.14407 21.1378 4.33333 17.3293 4.33333 12.7374C4.33333 8.05513 8.2212 4.2458 13 4.2458C17.7788 4.2458 21.6667 8.05513 21.6667 12.7374C21.6667 18.5858 20.2471 23.9824 17.447 28.7775C15.3543 32.3615 13.2262 34.2546 13.1864 34.2896C12.294 35.0658 12.2101 36.4041 13.0003 37.2816C13.4286 37.757 14.0258 38 14.6259 38C15.1351 37.9999 15.6466 37.825 16.0585 37.4689C16.1632 37.3782 18.6526 35.2028 21.1031 31.0646C23.3372 27.2922 26 21.0502 26 12.7374C26 5.71389 20.1682 0 13 0Z" transform="translate(30.942926 0.72953546)" id="Path" fill="#FF5C42" stroke="none" />
    <path d="M13 0C5.8318 0 0 5.7139 0 12.7374C0 16.096 1.32253 19.265 3.72385 21.6612C6.11986 24.0517 9.32024 25.4048 12.736 25.4718L12.8352 25.4742C14.0301 25.5096 15.0265 24.5793 15.0576 23.4073C15.0888 22.2352 14.1442 21.2604 12.948 21.2298L12.8281 21.2268C8.14407 21.1379 4.33333 17.3294 4.33333 12.7374C4.33333 8.05515 8.2212 4.24581 13 4.24581C17.7788 4.24581 21.6667 8.05515 21.6667 12.7374C21.6667 18.5858 20.2471 23.9825 17.447 28.7775C15.3543 32.3615 13.2262 34.2546 13.1864 34.2896C12.2939 35.0659 12.2101 36.4041 13.0003 37.2816C13.4286 37.7571 14.0258 38 14.6259 38C15.1351 38 15.6466 37.8251 16.0586 37.469C16.1632 37.3783 18.6527 35.2029 21.1032 31.0647C23.3372 27.2923 26 21.0504 26 12.7374C26 5.7139 20.1682 0 13 0Z" transform="translate(0.93170536 1.3009846)" id="Path" fill="#FF5C42" stroke="none" />
  </g>
</svg>